<?xml version="1.0" encoding="UTF-8" standalone="no"?>
<!-- Created with Inkscape (http://www.inkscape.org/) -->

<svg
   xmlns:dc="http://purl.org/dc/elements/1.1/"
   xmlns:cc="http://creativecommons.org/ns#"
   xmlns:rdf="http://www.w3.org/1999/02/22-rdf-syntax-ns#"
   xmlns:svg="http://www.w3.org/2000/svg"
   xmlns="http://www.w3.org/2000/svg"
   xmlns:sodipodi="http://sodipodi.sourceforge.net/DTD/sodipodi-0.dtd"
   xmlns:inkscape="http://www.inkscape.org/namespaces/inkscape"
   width="96.652794mm"
   height="97.563499mm"
   viewBox="0 0 96.652794 97.563499"
   version="1.1"
   id="svg4641"
   inkscape:version="0.92.1 r15371"
   sodipodi:docname="map.svg">
  <defs
     id="defs4635" />
  <sodipodi:namedview
     id="base"
     pagecolor="#ffffff"
     bordercolor="#666666"
     borderopacity="1.0"
     inkscape:pageopacity="0.0"
     inkscape:pageshadow="2"
     inkscape:zoom="0.98994949"
     inkscape:cx="436.0585"
     inkscape:cy="299.49163"
     inkscape:document-units="mm"
     inkscape:current-layer="layer1"
     showgrid="false"
     fit-margin-top="0"
     fit-margin-left="0"
     fit-margin-right="0"
     fit-margin-bottom="0"
     inkscape:window-width="2560"
     inkscape:window-height="1377"
     inkscape:window-x="-8"
     inkscape:window-y="-8"
     inkscape:window-maximized="1" />
  <metadata
     id="metadata4638">
    <rdf:RDF>
      <cc:Work
         rdf:about="">
        <dc:format>image/svg+xml</dc:format>
        <dc:type
           rdf:resource="http://purl.org/dc/dcmitype/StillImage" />
        <dc:title></dc:title>
      </cc:Work>
    </rdf:RDF>
  </metadata>
  <g
     inkscape:label="Layer 1"
     inkscape:groupmode="layer"
     id="layer1"
     transform="translate(-52.215269,-99.295633)">
    <g
       id="layer1-3"
       inkscape:label="Layer 1"
       transform="translate(11.312136,53.747783)">
      <g
         transform="matrix(0.26458333,0,0,0.26458333,24.758241,54.051518)"
         id="g4554">
        <g
           transform="translate(-14.142136,-58.588848)"
           id="g4491">
          <path
             inkscape:connector-curvature="0"
             d="m 328.24331,112.446 c 23.746,0 42.997,-19.252 42.997,-42.999 0,-23.746 -19.252,-42.998 -42.997,-42.998 -23.751,0 -43.003,19.252 -43.003,42.998 0,23.747 19.252,42.999 43.003,42.999 z"
             id="path4485" />
          <path
             inkscape:connector-curvature="0"
             d="m 314.19931,168.63 c 46.532,14.257 90.759,-2.536 122.258,-46.661 16.304,-22.832 -21.367,-44.473 -37.487,-21.903 -24.689,34.584 -57.75,38.588 -93.326,17.468 -2.421,-1.437 -13.165,-7.357 -15.543,-8.77 -57.231,-33.976 -114.394,-20.652 -152.731,33.035 -16.292,22.835 21.387,44.476 37.495,21.908 19.807,-27.739 44.993,-35.764 72.54,-26.978 -14.106,24.482 -26.436,48.815 -43.838,83.386 -17.401,34.57 -55.829,62.18 -92.753,40.587 -26.640002,-15.571 -50.666002,22.704 -24.104002,38.228 50.411002,29.459 109.513002,11.369 139.688002,-26.928 1.047,0.56 2.151,1.064 3.364,1.488 24.651,8.587 56.963,31.453 66.806,39.557 9.843,8.103 26.753,49.383 36.794,70.124 12.183,25.166 51.526,6.834 39.298,-18.438 -11.383,-23.533 -33.521,-72.752 -45.395,-82.382 -11.874,-9.629 -35.165,-27.266 -54.849,-37.328 13.317,-25.795 27.182,-51.315 41.783,-76.393 z"
             id="path4487" />
        </g>
        <g
           id="g4496" />
        <g
           id="g4498" />
        <g
           id="g4500" />
        <g
           id="g4502" />
        <g
           id="g4504" />
        <g
           id="g4506" />
        <g
           id="g4508" />
        <g
           id="g4510" />
        <g
           id="g4512" />
        <g
           id="g4514" />
        <g
           id="g4516" />
        <g
           id="g4518" />
        <g
           id="g4520" />
        <g
           id="g4522" />
        <g
           id="g4524" />
      </g>
    </g>
  </g>
</svg>
